<?xml version="1.0" encoding="UTF-8" standalone="no"?>
<!-- Created with Inkscape (http://www.inkscape.org/) -->

<svg
   width="1280"
   height="720"
   viewBox="0 0 338.66667 190.5"
   version="1.1"
   id="svg1"
   xml:space="preserve"
   inkscape:version="1.4.3 (0d15f75, 2025-12-25)"
   sodipodi:docname="PWEngine.svg"
   xmlns:inkscape="http://www.inkscape.org/namespaces/inkscape"
   xmlns:sodipodi="http://sodipodi.sourceforge.net/DTD/sodipodi-0.dtd"
   xmlns="http://www.w3.org/2000/svg"
   xmlns:svg="http://www.w3.org/2000/svg"
   xmlns:rdf="http://www.w3.org/1999/02/22-rdf-syntax-ns#"
   xmlns:cc="http://creativecommons.org/ns#"
   xmlns:dc="http://purl.org/dc/elements/1.1/"><title
     id="title1">PWEngine</title><sodipodi:namedview
     id="namedview1"
     pagecolor="#ffffff"
     bordercolor="#000000"
     borderopacity="0.25"
     inkscape:showpageshadow="2"
     inkscape:pageopacity="0.0"
     inkscape:pagecheckerboard="0"
     inkscape:deskcolor="#d1d1d1"
     inkscape:document-units="mm"
     inkscape:zoom="0.96483042"
     inkscape:cx="527.03562"
     inkscape:cy="386.59643"
     inkscape:window-width="1470"
     inkscape:window-height="859"
     inkscape:window-x="0"
     inkscape:window-y="31"
     inkscape:window-maximized="0"
     inkscape:current-layer="layer1" /><defs
     id="defs1"><radialGradient
       id="deviconSdl0"
       cx="204.9"
       cy="-244"
       r="25.72"
       fx="204.9"
       fy="-244"
       gradientTransform="matrix(-0.72758,-1.42335,2.41093,-1.2386,853.636,31.827)"
       gradientUnits="userSpaceOnUse"><stop
         offset="0"
         stop-color="#656F71"
         id="stop1" /><stop
         offset="1"
         stop-color="#D3D4CF"
         id="stop2" /></radialGradient></defs><g
     inkscape:label="PWEngine"
     id="layer1"
     style="display:inline"
     transform="translate(-1.9422911,-24.625053)"><g
       id="g23"
       inkscape:label="Rust"
       transform="translate(-153.95954,20.219719)"><g
         id="g24"
         inkscape:label="Box"
         style="display:inline"
         transform="matrix(0.99791636,0,0,0.60986764,155.82369,40.270445)"><rect
           style="fill:#000000;stroke-width:0.264583"
           id="rect23"
           width="120"
           height="60"
           x="31.898586"
           y="9.8947601"
           rx="5.689893e-15"
           ry="2.7755576e-17"
           inkscape:label="border" /><rect
           style="fill:#ffffff;stroke-width:0.267857"
           id="rect24"
           width="119.05726"
           height="58.916237"
           x="32.216896"
           y="10.571572"
           rx="5.7408738e-15"
           ry="2.8194041e-17"
           inkscape:label="padding" /></g><g
         id="g1"
         transform="matrix(0.0424681,0,0,0.0424681,186.07174,45.812829)"
         inkscape:label="Icon"
         style="display:inline"><path
           fill="#8f1f1d"
           d="m 706.403,338.05 c -131.633,0 -251.228,15.825 -339.77,41.615 v 220.298 c 88.542,25.79 208.137,41.614 339.77,41.614 150.657,0 285.535,-20.729 376.134,-53.402 V 391.457 C 991.938,358.781 857.06,338.05 706.403,338.05"
           id="path1" /><path
           fill="#8f1f1d"
           d="m 1088.423,537.442 c -3.856,-10.663 -4.629,-24.154 -1.36,-37.162 5.85,-23.289 22.421,-36.198 37.013,-28.833 3.618,1.827 6.773,4.73 9.387,8.418 0.239,-0.001 0.479,0 0.715,0.016 0,0 44.552,53.106 3.313,116.003 -0.896,3.569 -76.534,91.718 -94.043,94.524 -11.461,1.836 14.89,-89.998 44.975,-152.966"
           id="path2" /><path
           fill="#8f1f1d"
           d="m 357.479,527.021 c 5.3,-9.631 7.158,-22.788 4.217,-36.426 -5.266,-24.416 -23.91,-41.109 -41.642,-37.285 -4.398,0.948 -8.325,3.072 -11.666,6.099 -0.282,-0.059 -0.564,-0.113 -0.845,-0.153 0,0 -56.292,41.952 -12.057,113.924 0.805,3.741 83.851,108.838 104.311,115.764 13.391,4.531 -11.247,-92.526 -42.318,-161.923"
           id="path3" /><path
           fill="#e23a26"
           d="m 280.467,535.066 0.007,0.015 c 0.185,0.145 0.357,0.276 -0.007,-0.015"
           id="path4" /><path
           fill="#e33b26"
           d="m 1174.119,457.903 c -0.88,-3.064 -1.756,-6.126 -2.662,-9.162 l 30.683,-44.451 c 3.13,-4.522 3.771,-10.398 1.73,-15.555 -2.04,-5.13 -6.49,-8.81 -11.76,-9.71 l -51.887,-8.805 c -2.008,-4.102 -4.115,-8.142 -6.229,-12.15 l 21.797,-49.903 c 2.243,-5.087 1.769,-10.995 -1.203,-15.608 -2.961,-4.636 -7.99,-7.344 -13.349,-7.133 l -52.656,1.913 c -2.727,-3.55 -5.496,-7.068 -8.322,-10.521 l 12.102,-53.49 c 1.225,-5.433 -0.322,-11.118 -4.104,-15.064 -3.762,-3.932 -9.229,-5.559 -14.426,-4.283 l -51.289,12.608 c -3.321,-2.935 -6.699,-5.833 -10.114,-8.673 l 1.849,-54.914 c 0.197,-5.559 -2.394,-10.842 -6.845,-13.925 -4.445,-3.104 -10.093,-3.573 -14.955,-1.266 l -47.848,22.747 c -3.854,-2.21 -7.728,-4.4 -11.644,-6.517 l -8.455,-54.115 c -0.857,-5.483 -4.386,-10.139 -9.326,-12.266 -4.923,-2.137 -10.568,-1.447 -14.891,1.808 l -42.659,32.007 c -4.2,-1.395 -8.419,-2.732 -12.692,-4.011 L 826.578,66.148 c -1.87,-5.229 -6.182,-9.071 -11.438,-10.151 -5.238,-1.072 -10.63,0.742 -14.263,4.802 L 764.97,100.97 c -4.342,-0.5 -8.685,-0.956 -13.043,-1.331 L 724.204,52.926 c -2.811,-4.732 -7.771,-7.612 -13.116,-7.612 -5.334,0 -10.304,2.88 -13.09,7.612 l -27.733,46.713 c -4.358,0.375 -8.722,0.831 -13.056,1.331 l -35.91,-40.171 c -3.636,-4.06 -9.047,-5.874 -14.268,-4.802 -5.255,1.092 -9.573,4.922 -11.433,10.151 l -18.402,51.316 c -4.26,1.279 -8.481,2.627 -12.691,4.011 L 521.861,89.468 c -4.336,-3.266 -9.98,-3.955 -14.916,-1.808 -4.919,2.127 -8.461,6.783 -9.313,12.266 l -8.461,54.115 c -3.914,2.117 -7.789,4.294 -11.653,6.517 l -47.842,-22.747 c -4.858,-2.316 -10.529,-1.838 -14.954,1.266 -4.445,3.083 -7.042,8.366 -6.84,13.925 l 1.835,54.914 c -3.405,2.84 -6.774,5.738 -10.112,8.673 l -51.279,-12.608 c -5.211,-1.265 -10.67,0.351 -14.441,4.283 -3.795,3.946 -5.332,9.631 -4.113,15.064 l 12.079,53.49 c -2.802,3.467 -5.575,6.971 -8.293,10.521 l -52.655,-1.913 c -5.314,-0.157 -10.386,2.497 -13.356,7.133 -2.974,4.613 -3.425,10.521 -1.211,15.608 l 21.814,49.903 c -2.119,4.008 -4.224,8.048 -6.249,12.15 l -51.882,8.805 c -5.271,0.888 -9.715,4.566 -11.765,9.71 -2.037,5.157 -1.375,11.033 1.735,15.555 l 30.69,44.451 c -0.236,0.784 -0.455,1.576 -0.69,2.364 l -16.863,17.911 45.341,64.05 c 0,0 435.152,200.731 838.797,3.396 46.108,-8.273 56.855,-78.559 56.855,-78.559"
           id="path5" /><path
           d="m 788.629,436.277 c 0,0 54.108,-46.602 95.626,11.5 0,0 29.173,74.328 -12.593,104.708 0,0 -67.353,41.473 -95.627,-11.5 0,0 -36.365,-43.325 12.594,-104.708"
           id="path6" /><path
           fill="#ffffff"
           d="m 843.648,464.356 c -2.452,20.385 -16.456,35.467 -31.276,33.684 -14.817,-1.781 -24.846,-19.755 -22.395,-40.14 2.452,-20.385 16.457,-35.468 31.274,-33.687 14.82,1.784 24.849,19.758 22.397,40.143"
           id="path7" /><path
           d="m 572.949,399.315 c 0,0 86.384,-26.449 99.021,57.297 0,0 12.086,97.294 -79.356,91.705 -10e-4,0 -113.106,-36.227 -19.665,-149.002"
           id="path8" /><rect
           x="181"
           y="45"
           fill="none"
           width="1060"
           height="782"
           id="rect8" /><path
           fill="#ffffff"
           d="m 611.925,441.324 c -2.528,21.021 -16.969,36.581 -32.257,34.742 -15.281,-1.837 -25.624,-20.378 -23.095,-41.399 2.529,-21.026 16.973,-36.581 32.253,-34.743 15.287,1.839 25.628,20.374 23.099,41.4"
           id="path9" /><path
           fill="#e33b26"
           d="m 292.602,544.216 c 10.967,-12.463 37.611,-27.557 35.57,-46.282 -3.653,-33.526 -31.456,-57.999 -62.099,-54.658 -7.599,0.827 -14.658,3.292 -20.923,7.035 -0.463,-0.106 -0.925,-0.211 -1.388,-0.294 0,0 -103.632,50.873 -44.564,152.657 0.557,5.137 117.847,155.668 150.787,167.131 21.559,7.502 -19.911,-128.64 -57.383,-225.589"
           id="path10" /><path
           fill="#e33b26"
           d="m 1134.549,539.673 c -12.692,-10.7 -46.162,-20.418 -46.92,-39.238 -1.355,-33.697 22.512,-62.021 53.312,-63.26 7.638,-0.308 14.983,1.083 21.734,3.857 0.442,-0.174 0.884,-0.347 1.329,-0.497 0,0 110.025,34.951 66.695,144.366 0.21,5.163 -93.468,171.416 -124.345,187.635 -20.208,10.615 5.507,-131.431 28.195,-232.863"
           id="path11" /><rect
           x="181.06"
           y="45.313999"
           fill="none"
           width="1059.75"
           height="781.68597"
           id="rect11" /><path
           fill="#e33b26"
           d="m 372.142,545.559 c 0,0 -1.383,137.296 133.166,167.933 l 28.054,-56.363 c 0,0 -97.495,9.431 -104.995,-111.569 h -56.225"
           id="path12" /><rect
           x="181"
           y="45"
           fill="none"
           width="1060"
           height="782"
           id="rect12" /><path
           fill="#e33b26"
           d="m 1057.362,537.246 c 0,0 1.382,137.296 -133.167,167.933 L 896.14,648.816 c 0,0 97.495,9.431 104.995,-111.569 h 56.227"
           id="path13" /><path
           fill="#e33b26"
           d="m 960.167,677.279 c -20.25,-48.941 -85.595,-68.373 -145.951,-43.399 -53.126,21.98 -84.637,71.031 -77.624,115.845 41.946,-0.652 86.94,-3.371 130.736,-9.718 0,0 -25.837,41.763 -63.857,78.211 25.566,6.599 55.383,4.768 84.076,-7.104 60.357,-24.973 92.87,-84.893 72.62,-133.835"
           id="path14" /><path
           fill="#e33b26"
           d="m 585.746,745.985 c 0,0 55.203,7.295 130.67,9.155 6.61,-47.511 -29.38,-97.792 -86.801,-117.242 -63.438,-21.488 -128.989,2.792 -146.414,54.231 -17.425,51.44 19.876,110.561 83.314,132.049 28.121,9.526 56.653,10.049 81.229,3.207 -36.911,-36.504 -61.998,-81.4 -61.998,-81.4"
           id="path15" /><rect
           x="181.06"
           y="45.313999"
           fill="none"
           width="1059.75"
           height="781.68597"
           id="rect15" /></g><text
         xml:space="preserve"
         style="font-style:normal;font-variant:normal;font-weight:normal;font-stretch:normal;font-size:19.7556px;font-family:Arial;-inkscape-font-specification:Arial;writing-mode:lr-tb;direction:ltr;display:inline;fill:#000000;stroke-width:0.264583"
         x="250.65228"
         y="73.106911"
         id="text24"
         inkscape:label="text"><tspan
           sodipodi:role="line"
           id="tspan24"
           style="stroke-width:0.264583"
           x="250.65228"
           y="73.106911">Rust</tspan><tspan
           sodipodi:role="line"
           style="stroke-width:0.264583"
           x="250.65228"
           y="97.801407"
           id="tspan25" /></text></g><g
       id="g22"
       inkscape:label="Cpp"
       transform="translate(2.1554,18.537416)"><g
         id="g3"
         inkscape:label="Box"
         style="display:inline"
         transform="matrix(1,0,0,0.61569322,155.75722,41.744075)"><rect
           style="fill:#000000;stroke-width:0.264583"
           id="rect21"
           width="120"
           height="60"
           x="31.898586"
           y="9.8947601"
           rx="5.689893e-15"
           ry="2.7755576e-17"
           inkscape:label="border" /><rect
           style="fill:#ffffff;stroke-width:0.267568"
           id="rect22"
           width="118.75011"
           height="58.941254"
           x="32.52301"
           y="10.571572"
           rx="5.726063e-15"
           ry="2.8206012e-17"
           inkscape:label="padding" /></g><text
         xml:space="preserve"
         style="font-style:normal;font-variant:normal;font-weight:normal;font-stretch:normal;font-size:19.7556px;font-family:Arial;-inkscape-font-specification:Arial;writing-mode:lr-tb;direction:ltr;display:inline;fill:#000000;stroke-width:0.264583"
         x="249.3622"
         y="73.372009"
         id="text22"
         inkscape:label="text"><tspan
           id="tspan22"
           style="font-style:normal;font-variant:normal;font-weight:normal;font-stretch:normal;font-size:19.7556px;font-family:Arial;-inkscape-font-specification:Arial;fill:#000000;stroke-width:0.264583"
           x="249.3622"
           y="73.372009"
           sodipodi:role="line">C++</tspan></text><g
         id="g2"
         transform="matrix(0.11327535,0,0,0.11327535,199.58646,49.746056)"
         inkscape:label="Icon"
         style="display:inline"><path
           fill="#649ad2"
           d="m 255.987,84.59 c -0.002,-4.837 -1.037,-9.112 -3.13,-12.781 -2.054,-3.608 -5.133,-6.632 -9.261,-9.023 -34.08,-19.651 -68.195,-39.242 -102.264,-58.913 -9.185,-5.303 -18.09,-5.11 -27.208,0.27 -13.565,8 -81.48,46.91 -101.719,58.632 C 4.071,67.6 0.015,74.984 0.013,84.58 0,124.101 0.013,163.62 0,203.141 c 0,4.73 0.993,8.923 2.993,12.537 2.056,3.717 5.177,6.824 9.401,9.269 20.24,11.722 88.164,50.63 101.726,58.631 9.121,5.382 18.027,5.575 27.215,0.27 34.07,-19.672 68.186,-39.262 102.272,-58.913 4.224,-2.444 7.345,-5.553 9.401,-9.267 1.997,-3.614 2.992,-7.806 2.992,-12.539 0,0 0,-79.018 -0.013,-118.539"
           id="path1-2" /><path
           fill="#004482"
           d="m 128.392,143.476 -125.4,72.202 c 2.057,3.717 5.178,6.824 9.402,9.269 20.24,11.722 88.164,50.63 101.726,58.631 9.121,5.382 18.027,5.575 27.215,0.27 34.07,-19.672 68.186,-39.262 102.272,-58.913 4.224,-2.444 7.345,-5.553 9.401,-9.267 z"
           id="path2-9" /><path
           fill="#1a4674"
           d="m 91.25,164.863 c 7.297,12.738 21.014,21.33 36.75,21.33 15.833,0 29.628,-8.7 36.888,-21.576 l -36.496,-21.141 z"
           id="path3-8" /><path
           fill="#01589c"
           d="m 255.987,84.59 c -0.002,-4.837 -1.037,-9.112 -3.13,-12.781 l -124.465,71.667 124.616,72.192 c 1.997,-3.614 2.99,-7.806 2.992,-12.539 0,0 0,-79.018 -0.013,-118.539"
           id="path4-2" /><path
           fill="#ffffff"
           d="m 249.135,148.636 h -9.738 v 9.74 h -9.74 v -9.74 H 219.92 V 138.9 h 9.737 v -9.738 h 9.74 v 9.738 h 9.738 z M 128,58.847 c 31.135,0 58.358,16.74 73.17,41.709 l 0.444,0.759 -37.001,21.307 C 157.28,110.013 143.635,101.528 128,101.528 c -23.38,0 -42.333,18.953 -42.333,42.332 a 42.13,42.13 0 0 0 5.583,21.003 c 7.297,12.738 21.014,21.33 36.75,21.33 15.659,0 29.325,-8.51 36.647,-21.153 l 0.241,-0.423 36.947,21.406 c -14.65,25.597 -42.228,42.851 -73.835,42.851 -31.549,0 -59.084,-17.185 -73.754,-42.707 -7.162,-12.459 -11.26,-26.904 -11.26,-42.307 0,-46.95 38.061,-85.013 85.014,-85.013 m 75.865,70.314 v 9.738 h 9.737 v 9.737 h -9.737 v 9.74 h -9.738 v -9.74 h -9.738 V 138.9 h 9.738 v -9.738 z"
           id="path5-0" /></g></g><g
       id="g26"
       inkscape:label="API"
       style="display:inline"
       transform="matrix(2.298228,0,0,1,-39.508688,138.83189)"><g
         id="g27"
         inkscape:label="Box"
         transform="matrix(1,0,0,0.85043264,0,6.2031129)"><rect
           style="fill:#000000;stroke-width:0.264583"
           id="rect25"
           width="120"
           height="60"
           x="31.898586"
           y="9.8947601"
           rx="5.689893e-15"
           ry="2.7755576e-17"
           inkscape:label="border" /><rect
           style="fill:#ffffff;stroke-width:0.266581"
           id="rect26"
           width="119.3857"
           height="58.195724"
           x="32.177074"
           y="10.571572"
           rx="5.7567103e-15"
           ry="2.7849242e-17"
           inkscape:label="padding" /></g><g
         id="g28"
         transform="matrix(0.23024986,0,0,0.52916667,43.759481,5.8832377)"
         style="display:inline"
         inkscape:label="SDL"><path
           fill="url(#deviconSdl0)"
           d="m 59.113,63.93 c -14.59,-0.5 -28.465,-3.809 -39.254,-9.355 -1.016,-0.52 -3.234,-1.758 -3.234,-1.801 0,-0.016 0.352,0.148 0.781,0.371 5.281,2.703 11.918,5.012 18.621,6.477 10.629,2.328 22.27,2.949 33.676,1.789 10.766,-1.09 20.824,-3.742 29.41,-7.746 7.723,-3.605 13.902,-8.215 18.02,-13.43 6.32,-8.02 7.168,-17.316 2.328,-25.562 -3.133,-5.344 -8.363,-10.055 -15.543,-13.992 -0.687,-0.375 -1.227,-0.684 -1.199,-0.684 0.094,0 3.133,1.465 4.082,1.973 4.637,2.461 8.324,5.086 11.543,8.207 4.043,3.922 6.582,7.961 7.824,12.449 1.148,4.148 0.934,8.75 -0.598,12.828 -2.062,5.488 -6.277,10.539 -12.441,14.914 -10.016,7.102 -24.352,11.805 -40.254,13.203 a 120,120 0 0 1 -13.766,0.363 z m 0,0"
           transform="matrix(0.9768,0,0,0.9768,2.065,32.748)"
           id="path2-3"
           style="fill:url(#deviconSdl0)" /><g
           fill="#173354"
           id="g4"><path
             d="m 95.441,76.83 h -0.076 a 0.5,0.5 0 0 0 -0.153,-0.027 l -0.217,-0.008 a 1.3,1.3 0 0 0 -0.305,0.038 l -0.305,0.095 v 1.873 H 93.469 V 76 h 0.916 v 0.404 a 3,3 0 0 1 0.176,-0.141 2,2 0 0 1 0.202,-0.134 1,1 0 0 1 0.229,-0.095 0.8,0.8 0 0 1 0.252,-0.042 h 0.099 c 0.038,0.004 0.069,0.004 0.099,0.011 z m -3.331,2.049 q -0.834,10e-4 -1.278,-0.382 c -0.444,-0.383 -0.443,-0.611 -0.443,-1.08 q 0,-0.683 0.412,-1.091 c 0.412,-0.408 0.66,-0.412 1.156,-0.412 q 0.675,0.002 1.019,0.347 c 0.344,0.345 0.34,0.561 0.34,0.992 v 0.317 h -2.011 q 0.015,0.194 0.088,0.324 a 0.56,0.56 0 0 0 0.195,0.206 0.8,0.8 0 0 0 0.275,0.114 1.7,1.7 0 0 0 0.343,0.031 1.4,1.4 0 0 0 0.313,-0.031 1.4,1.4 0 0 0 0.282,-0.092 q 0.113,-0.047 0.21,-0.099 l 0.156,-0.099 h 0.095 v 0.721 l -0.206,0.076 A 1.5,1.5 0 0 1 92.8,78.797 l -0.305,0.057 a 3,3 0 0 1 -0.389,0.023 z m 0.301,-1.835 c -0.004,-0.187 -0.05,-0.324 -0.134,-0.424 -0.084,-0.1 -0.214,-0.145 -0.389,-0.145 -0.175,0 -0.317,0.053 -0.42,0.153 -0.103,0.1 -0.153,0.24 -0.164,0.416 z m -1.832,-1.042 -1.484,3.827 h -0.984 l 0.443,-1.095 -1.076,-2.732 h 0.962 l 0.618,1.755 0.58,-1.755 z m -4.014,2.072 V 77.49 l -0.374,0.038 a 1.2,1.2 0 0 0 -0.286,0.065 q -0.119,0.04 -0.187,0.118 c -0.068,0.078 -0.065,0.126 -0.065,0.217 q 0,0.195 0.111,0.271 c 0.111,0.076 0.183,0.072 0.328,0.072 a 0.7,0.7 0 0 0 0.248,-0.053 0.7,0.7 0 0 0 0.225,-0.145 z m 0,0.431 -0.168,0.137 a 1,1 0 0 1 -0.198,0.118 1.4,1.4 0 0 1 -0.24,0.088 1.4,1.4 0 0 1 -0.328,0.031 0.9,0.9 0 0 1 -0.649,-0.252 0.82,0.82 0 0 1 -0.256,-0.626 q -0.001,-0.315 0.13,-0.504 c 0.131,-0.189 0.214,-0.229 0.378,-0.305 0.164,-0.076 0.362,-0.13 0.595,-0.16 l 0.744,-0.069 v -0.015 c 0,-0.156 -0.061,-0.259 -0.179,-0.321 -0.118,-0.062 -0.301,-0.088 -0.538,-0.088 q -0.165,0 -0.382,0.057 a 3,3 0 0 0 -0.424,0.141 h -0.08 v -0.675 a 5,5 0 0 1 0.443,-0.088 3.6,3.6 0 0 1 0.611,-0.053 q 0.762,-0.001 1.107,0.244 c 0.345,0.245 0.347,0.404 0.347,0.733 v 1.904 h -0.912 z m -1.709,0.298 H 82.254 V 75.09 h 0.981 v 3.007 h 1.622 z M 79.682,78.074 V 77.49 l -0.378,0.038 a 1.2,1.2 0 0 0 -0.282,0.065 q -0.119,0.04 -0.187,0.118 c -0.068,0.078 -0.069,0.126 -0.069,0.217 q 0,0.195 0.114,0.271 c 0.114,0.076 0.183,0.072 0.328,0.072 a 0.6,0.6 0 0 0 0.244,-0.053 0.8,0.8 0 0 0 0.229,-0.145 z m 0,0.431 -0.168,0.137 a 1,1 0 0 1 -0.202,0.118 1.2,1.2 0 0 1 -0.24,0.088 1.4,1.4 0 0 1 -0.324,0.031 0.9,0.9 0 0 1 -0.649,-0.252 0.83,0.83 0 0 1 -0.259,-0.626 q 10e-4,-0.315 0.134,-0.504 c 0.133,-0.189 0.214,-0.229 0.378,-0.305 a 2,2 0 0 1 0.591,-0.16 l 0.744,-0.069 v -0.015 c 0,-0.156 -0.057,-0.259 -0.179,-0.321 -0.122,-0.062 -0.298,-0.088 -0.538,-0.088 a 1.5,1.5 0 0 0 -0.378,0.057 3,3 0 0 0 -0.427,0.141 h -0.076 v -0.675 a 5,5 0 0 1 0.439,-0.088 3.6,3.6 0 0 1 0.614,-0.053 q 0.757,-0.001 1.107,0.244 c 0.35,0.245 0.347,0.404 0.347,0.733 v 1.904 h -0.912 z m -2.003,0.298 h -0.916 v -2.801 h 0.916 z m 0.027,-3.198 h -0.969 v -0.679 h 0.969 z m -1.32,3.198 H 75.47 v -0.29 l -0.202,0.149 a 1.3,1.3 0 0 1 -0.202,0.118 1,1 0 0 1 -0.473,0.099 0.93,0.93 0 0 1 -0.797,-0.397 q -0.293,-0.394 -0.294,-1.057 0,-0.367 0.099,-0.637 c 0.099,-0.27 0.16,-0.336 0.275,-0.469 a 1.1,1.1 0 0 1 0.389,-0.286 q 0.23,-0.108 0.481,-0.107 a 1.3,1.3 0 0 1 0.382,0.046 q 0.143,0.047 0.343,0.145 v -1.194 h 0.916 z M 75.47,78.032 v -1.377 a 1,1 0 0 0 -0.179,-0.053 1,1 0 0 0 -0.187,-0.019 q -0.33,0 -0.496,0.217 c -0.166,0.217 -0.168,0.351 -0.168,0.614 q 0.001,0.414 0.134,0.599 c 0.133,0.185 0.229,0.183 0.427,0.183 a 0.8,0.8 0 0 0 0.244,-0.042 1,1 0 0 0 0.225,-0.122 m -3.114,0.847 c -0.553,0 -0.981,-0.126 -1.274,-0.382 -0.293,-0.256 -0.446,-0.611 -0.446,-1.08 q 0.002,-0.683 0.416,-1.091 c 0.414,-0.408 0.66,-0.412 1.156,-0.412 q 0.675,0.002 1.019,0.347 c 0.344,0.345 0.34,0.561 0.34,0.992 v 0.317 h -2.011 q 0.015,0.194 0.088,0.324 a 0.56,0.56 0 0 0 0.195,0.206 q 0.114,0.08 0.275,0.114 c 0.161,0.034 0.217,0.031 0.343,0.031 a 1.4,1.4 0 0 0 0.313,-0.031 1.4,1.4 0 0 0 0.282,-0.092 q 0.113,-0.047 0.21,-0.099 l 0.156,-0.099 h 0.095 v 0.721 l -0.206,0.076 a 2,2 0 0 1 -0.256,0.076 l -0.305,0.057 a 3,3 0 0 1 -0.389,0.023 z m 0.305,-1.835 C 72.653,76.857 72.611,76.72 72.527,76.62 72.443,76.52 72.31,76.475 72.138,76.475 q -0.267,0.001 -0.42,0.153 c -0.153,0.152 -0.156,0.24 -0.164,0.416 z m -3.091,1.759 v -1.397 l -0.008,-0.351 a 0.7,0.7 0 0 0 -0.046,-0.233 0.27,0.27 0 0 0 -0.122,-0.13 0.55,0.55 0 0 0 -0.233,-0.042 0.5,0.5 0 0 0 -0.206,0.046 1.2,1.2 0 0 0 -0.225,0.122 v 1.984 h -0.92 v -1.397 l -0.008,-0.347 a 0.7,0.7 0 0 0 -0.05,-0.233 0.3,0.3 0 0 0 -0.122,-0.134 0.5,0.5 0 0 0 -0.229,-0.042 0.6,0.6 0 0 0 -0.221,0.05 l -0.21,0.118 v 1.984 H 66.054 V 76 h 0.916 v 0.309 q 0.228,-0.178 0.427,-0.282 a 0.94,0.94 0 0 1 0.446,-0.103 0.9,0.9 0 0 1 0.473,0.122 0.8,0.8 0 0 1 0.313,0.366 q 0.264,-0.236 0.5,-0.362 a 1,1 0 0 1 0.473,-0.126 q 0.206,10e-4 0.366,0.065 a 0.63,0.63 0 0 1 0.275,0.187 0.85,0.85 0 0 1 0.187,0.317 1.7,1.7 0 0 1 0.061,0.488 v 1.82 z m -4.296,0.057 q -0.56,-0.002 -0.817,-0.221 C 64.2,78.42 64.205,78.254 64.205,77.922 v -1.309 h -0.351 v -0.611 h 0.351 v -0.797 h 0.916 v 0.797 h 0.881 v 0.611 h -0.881 v 1.248 a 0.5,0.5 0 0 0 0.042,0.198 0.3,0.3 0 0 0 0.13,0.137 0.6,0.6 0 0 0 0.271,0.053 1,1 0 0 0 0.195,-0.031 0.6,0.6 0 0 0 0.164,-0.057 h 0.08 v 0.618 l -0.317,0.057 a 3,3 0 0 1 -0.412,0.023 z m -2.186,0.019 A 2.4,2.4 0 0 1 62.42,78.791 1.5,1.5 0 0 1 61.897,78.524 1.2,1.2 0 0 1 61.554,78.066 1.55,1.55 0 0 1 61.432,77.417 q -0.002,-0.404 0.134,-0.683 a 1.3,1.3 0 0 1 0.359,-0.466 1.5,1.5 0 0 1 0.519,-0.259 2.4,2.4 0 0 1 0.618,-0.084 2.2,2.2 0 0 1 0.976,0.225 v 0.748 H 63.92 A 1.4,1.4 0 0 0 63.786,76.791 Q 63.706,76.733 63.61,76.68 c -0.096,-0.053 -0.141,-0.065 -0.225,-0.088 a 1,1 0 0 0 -0.279,-0.038 q -0.351,-0.001 -0.542,0.233 c -0.191,0.234 -0.195,0.366 -0.195,0.63 q 0,0.419 0.206,0.626 c 0.206,0.207 0.321,0.206 0.546,0.206 a 1.2,1.2 0 0 0 0.305,-0.034 c 0.088,-0.023 0.16,-0.057 0.225,-0.092 0.065,-0.035 0.111,-0.072 0.156,-0.107 l 0.111,-0.103 h 0.118 v 0.748 l -0.179,0.076 a 2,2 0 0 1 -0.214,0.069 l -0.248,0.053 a 2,2 0 0 1 -0.309,0.019 z m -2.797,0 q -0.834,0 -1.278,-0.378 C 58.569,78.123 58.57,77.887 58.57,77.421 q -10e-4,-0.688 0.416,-1.095 c 0.417,-0.407 0.66,-0.408 1.156,-0.408 q 0.676,-0.001 1.015,0.347 c 0.339,0.348 0.34,0.561 0.34,0.992 V 77.57 H 59.49 q 0.013,0.194 0.088,0.324 a 0.56,0.56 0 0 0 0.191,0.21 q 0.12,0.076 0.275,0.111 a 1.6,1.6 0 0 0 0.343,0.034 1.5,1.5 0 0 0 0.317,-0.034 q 0.153,-0.035 0.282,-0.088 l 0.206,-0.103 0.156,-0.095 h 0.099 v 0.717 l -0.206,0.08 a 2,2 0 0 1 -0.256,0.072 3,3 0 0 1 -0.309,0.061 3,3 0 0 1 -0.385,0.019 z m 0.305,-1.835 c -0.004,-0.183 -0.053,-0.324 -0.137,-0.42 -0.084,-0.096 -0.214,-0.145 -0.389,-0.145 -0.175,0 -0.317,0.05 -0.416,0.153 a 0.63,0.63 0 0 0 -0.168,0.412 z M 58.753,76.83 h -0.076 a 1,1 0 0 0 -0.149,-0.027 l -0.221,-0.008 a 1.2,1.2 0 0 0 -0.301,0.038 q -0.16,0.042 -0.309,0.095 v 1.877 h -0.916 v -2.801 h 0.916 v 0.401 a 2,2 0 0 1 0.176,-0.137 1.2,1.2 0 0 1 0.202,-0.134 q 0.096,-0.058 0.233,-0.099 a 1,1 0 0 1 0.248,-0.042 l 0.099,0.004 a 1,1 0 0 1 0.099,0.008 z M 56.4,78.806 H 55.484 V 76.005 H 56.4 Z m 0.027,-3.201 h -0.969 v -0.679 h 0.969 z m -1.145,1.347 a 1.8,1.8 0 0 1 -0.24,0.931 1.74,1.74 0 0 1 -0.603,0.63 q -0.302,0.183 -0.66,0.24 a 5,5 0 0 1 -0.759,0.053 h -1.221 v -3.713 h 1.21 a 5.4,5.4 0 0 1 0.771,0.05 1.8,1.8 0 0 1 0.672,0.24 1.7,1.7 0 0 1 0.607,0.633 c 0.145,0.263 0.225,0.576 0.225,0.935 z m -1.007,-0.008 c 0,-0.244 -0.042,-0.454 -0.134,-0.626 a 0.93,0.93 0 0 0 -0.404,-0.408 1,1 0 0 0 -0.42,-0.114 l -0.523,-0.011 h -0.019 v 2.324 h 0.019 l 0.557,-0.011 a 0.9,0.9 0 0 0 0.431,-0.134 0.94,0.94 0 0 0 0.366,-0.397 1.4,1.4 0 0 0 0.126,-0.622 z m -5.136,1.935 c -0.553,0 -0.981,-0.126 -1.274,-0.378 -0.293,-0.252 -0.446,-0.611 -0.446,-1.08 0,-0.458 0.141,-0.82 0.416,-1.095 0.275,-0.275 0.66,-0.408 1.156,-0.408 q 0.676,-0.001 1.015,0.347 c 0.339,0.348 0.343,0.561 0.343,0.992 v 0.313 h -2.011 q 0.013,0.195 0.088,0.328 a 0.56,0.56 0 0 0 0.195,0.206 0.8,0.8 0 0 0 0.275,0.111 1.6,1.6 0 0 0 0.343,0.034 1.4,1.4 0 0 0 0.313,-0.034 q 0.155,-0.033 0.282,-0.088 a 2,2 0 0 0 0.21,-0.103 l 0.153,-0.095 h 0.099 v 0.721 l -0.206,0.076 a 2,2 0 0 1 -0.256,0.076 l -0.309,0.057 a 3,3 0 0 1 -0.385,0.019 z m 0.305,-1.832 q -0.007,-0.28 -0.134,-0.424 c -0.127,-0.144 -0.217,-0.145 -0.389,-0.145 q -0.267,0 -0.42,0.153 c -0.153,0.153 -0.156,0.24 -0.164,0.416 z m -2.19,1.759 h -0.916 v -3.881 h 0.916 z M 46.17,77.368 q -0.002,0.67 -0.359,1.084 c -0.357,0.414 -0.534,0.408 -0.881,0.408 q -0.22,0 -0.382,-0.046 a 1.6,1.6 0 0 1 -0.347,-0.149 v 1.168 h -0.916 v -3.827 h 0.916 V 76.3 a 2,2 0 0 1 0.412,-0.267 1.1,1.1 0 0 1 0.485,-0.103 q 0.51,10e-4 0.79,0.385 c 0.28,0.384 0.282,0.611 0.282,1.053 m -0.939,0.015 Q 45.23,76.976 45.097,76.792 c -0.133,-0.184 -0.225,-0.187 -0.412,-0.187 a 1,1 0 0 0 -0.244,0.038 c -0.08,0.023 -0.16,0.065 -0.24,0.114 v 1.408 q 0.075,0.03 0.16,0.042 c 0.085,0.012 0.13,0.011 0.21,0.011 0.221,0 0.389,-0.069 0.496,-0.206 0.107,-0.137 0.164,-0.347 0.164,-0.63 z m -3.228,1.423 v -1.4 l -0.008,-0.347 q -0.006,-0.142 -0.046,-0.233 c -0.04,-0.091 -0.069,-0.103 -0.122,-0.13 a 0.54,0.54 0 0 0 -0.233,-0.042 0.6,0.6 0 0 0 -0.206,0.042 1.5,1.5 0 0 0 -0.221,0.126 v 1.984 h -0.923 v -1.4 l -0.008,-0.347 a 0.7,0.7 0 0 0 -0.05,-0.233 0.26,0.26 0 0 0 -0.122,-0.13 0.5,0.5 0 0 0 -0.229,-0.042 0.5,0.5 0 0 0 -0.217,0.05 1.5,1.5 0 0 0 -0.21,0.118 v 1.984 h -0.916 v -2.801 h 0.916 v 0.309 q 0.223,-0.181 0.424,-0.282 a 0.96,0.96 0 0 1 0.446,-0.103 q 0.27,0.001 0.477,0.122 c 0.207,0.121 0.237,0.202 0.309,0.362 a 2.7,2.7 0 0 1 0.5,-0.359 1,1 0 0 1 0.477,-0.126 1,1 0 0 1 0.366,0.061 0.7,0.7 0 0 1 0.275,0.187 1,1 0 0 1 0.183,0.321 q 0.062,0.188 0.061,0.485 v 1.824 z m -3.892,0 h -0.916 v -2.801 h 0.916 z m 0.027,-3.198 h -0.969 v -0.683 h 0.969 z m -2.759,3.266 c -0.301,0 -0.561,-0.031 -0.79,-0.084 -0.229,-0.053 -0.435,-0.122 -0.63,-0.202 v -0.885 h 0.092 c 0.195,0.16 0.408,0.279 0.645,0.366 a 2,2 0 0 0 0.687,0.126 c 0.057,0 0.13,-0.008 0.221,-0.015 a 1,1 0 0 0 0.221,-0.057 0.5,0.5 0 0 0 0.172,-0.118 0.27,0.27 0 0 0 0.072,-0.198 0.27,0.27 0 0 0 -0.114,-0.229 0.8,0.8 0 0 0 -0.275,-0.126 L 35.253,77.357 A 4,4 0 0 1 34.829,77.246 Q 34.376,77.096 34.18,76.838 C 33.984,76.58 33.985,76.453 33.985,76.193 q 0,-0.519 0.462,-0.843 c 0.462,-0.324 0.694,-0.321 1.156,-0.321 a 3.5,3.5 0 0 1 0.694,0.065 q 0.344,0.069 0.614,0.183 v 0.847 h -0.084 a 2,2 0 0 0 -0.53,-0.298 1.8,1.8 0 0 0 -0.645,-0.122 1.4,1.4 0 0 0 -0.229,0.015 0.8,0.8 0 0 0 -0.214,0.069 0.44,0.44 0 0 0 -0.16,0.118 0.25,0.25 0 0 0 -0.065,0.176 q 0,0.141 0.103,0.225 c 0.103,0.084 0.21,0.107 0.412,0.153 l 0.378,0.08 a 4,4 0 0 1 0.389,0.111 q 0.407,0.138 0.603,0.374 c 0.196,0.236 0.198,0.366 0.198,0.622 q 0,0.556 -0.458,0.889 c -0.458,0.333 -0.714,0.34 -1.232,0.34 z m 59.727,-6.31 H 69.926 V 36.659 H 79.4 V 65.723 H 95.105 Z M 67.454,54.638 q 0.001,5.014 -2.305,8.982 c -2.306,3.968 -3.48,4.674 -5.826,6.09 a 16.8,16.8 0 0 1 -6.395,2.328 q -3.457,0.52 -7.36,0.519 H 33.766 v -35.91 h 11.703 q 3.977,-10e-4 7.444,0.485 a 16.9,16.9 0 0 1 6.513,2.339 16.43,16.43 0 0 1 5.876,6.113 q 2.152,3.848 2.152,9.058 z m -9.726,-0.072 q 0,-3.549 -1.282,-6.067 C 55.164,45.981 54.283,45.504 52.508,44.554 A 9.5,9.5 0 0 0 48.467,43.447 L 43.415,43.348 H 43.236 V 65.83 h 0.179 l 5.384,-0.111 q 2.186,-0.11 4.167,-1.29 c 1.553,-0.931 2.736,-2.221 3.545,-3.858 0.809,-1.637 1.217,-3.644 1.217,-6.006 z M 15.687,73.201 Q 11.355,73.2 8.075,72.404 C 4.795,71.608 3.859,71.214 1.981,70.428 v -8.539 h 0.862 c 1.893,1.53 3.976,2.701 6.258,3.522 2.282,0.821 4.491,1.232 6.635,1.232 q 0.813,0 2.141,-0.172 c 1.328,-0.172 1.599,-0.29 2.141,-0.53 a 4.7,4.7 0 0 0 1.671,-1.145 c 0.458,-0.493 0.683,-1.137 0.683,-1.942 q 0.001,-1.348 -1.114,-2.194 c -1.115,-0.846 -1.629,-0.973 -2.659,-1.232 l -4.117,-0.916 a 34,34 0 0 1 -4.09,-1.061 Q 6.007,55.978 4.111,53.498 c -1.896,-2.48 -1.9,-3.732 -1.9,-6.223 Q 2.209,42.233 6.694,39.11 c 4.485,-3.123 6.719,-3.125 11.195,-3.125 a 35,35 0 0 1 6.7,0.652 q 3.33,0.653 5.968,1.763 v 8.2 h -0.836 q -2.106,-1.711 -5.132,-2.896 c -3.026,-1.185 -4.09,-1.183 -6.219,-1.183 a 13,13 0 0 0 -2.228,0.172 9,9 0 0 0 -2.08,0.649 4.2,4.2 0 0 0 -1.53,1.149 q -0.648,0.76 -0.649,1.698 0,1.375 1.026,2.183 c 1.026,0.808 2.007,1.026 3.964,1.461 l 3.663,0.794 q 1.758,0.387 3.762,1.061 c 2.614,0.9 4.564,2.11 5.838,3.632 1.274,1.522 1.912,3.522 1.912,6.017 q 0,5.352 -4.419,8.608 C 23.21,73.201 20.7,73.2 15.686,73.2 Z m 0,0"
             id="path3-1" /><path
             fill-rule="evenodd"
             d="m 31.163,89.112 c -0.233,0 -0.424,0.164 -0.424,0.366 0,0.202 0.191,0.37 0.424,0.37 0.233,0 0.42,-0.168 0.42,-0.37 0,-0.202 -0.187,-0.366 -0.42,-0.366 m 18.101,3.293 c -0.362,0 -0.66,0.256 -0.66,0.572 0,0.316 0.298,0.576 0.66,0.576 0.362,0 0.66,-0.256 0.66,-0.576 0,-0.32 -0.294,-0.572 -0.66,-0.572 M 39.87,91.161 c -0.29,0 -0.527,0.206 -0.527,0.462 0,0.256 0.237,0.458 0.527,0.458 0.29,0 0.53,-0.206 0.53,-0.458 0,-0.252 -0.237,-0.462 -0.53,-0.462 m 19.685,1.614 c -0.454,0 -0.824,0.321 -0.824,0.717 0,0.396 0.37,0.717 0.824,0.717 0.454,0 0.824,-0.321 0.824,-0.717 0,-0.396 -0.37,-0.717 -0.824,-0.717 m 10.627,-0.553 c -0.572,0 -1.034,0.401 -1.034,0.897 0,0.496 0.462,0.897 1.034,0.897 0.572,0 1.03,-0.404 1.03,-0.897 0,-0.493 -0.462,-0.897 -1.03,-0.897 m 10.646,-1.824 c -0.71,0 -1.286,0.5 -1.286,1.122 0,0.622 0.576,1.118 1.286,1.118 0.71,0 1.29,-0.5 1.29,-1.118 0,-0.618 -0.576,-1.122 -1.29,-1.122 m 10.657,-3.339 c -0.889,0 -1.61,0.63 -1.61,1.404 0,0.774 0.721,1.4 1.61,1.4 0.889,0 1.614,-0.63 1.614,-1.4 0,-0.77 -0.725,-1.404 -1.614,-1.404 m 10.203,-4.438 c -0.988,0 -1.79,0.694 -1.79,1.557 0,0.863 0.801,1.557 1.79,1.557 0.989,0 1.79,-0.698 1.79,-1.557 0,-0.859 -0.801,-1.557 -1.79,-1.557 m 9.303,-6.384 c -1.099,0 -1.992,0.775 -1.992,1.728 0,0.953 0.893,1.732 1.992,1.732 1.099,0 1.988,-0.775 1.988,-1.732 0,-0.957 -0.889,-1.728 -1.988,-1.728 m 7.669,-8.982 c -1.431,0 -2.587,1.007 -2.587,2.251 0,1.244 1.156,2.247 2.587,2.247 1.431,0 2.587,-1.007 2.587,-2.247 0,-1.24 -1.16,-2.251 -2.587,-2.251 m 3.293,-9.318 c -1.099,0 -1.988,0.775 -1.988,1.732 0,0.957 0.889,1.728 1.988,1.728 1.099,0 1.992,-0.775 1.992,-1.728 0,-0.953 -0.889,-1.732 -1.992,-1.732 m -1.11,-5.815 c 0.786,0 1.423,-0.553 1.423,-1.232 0,-0.679 -0.637,-1.236 -1.423,-1.236 -0.786,0 -1.419,0.553 -1.419,1.236 0,0.683 0.637,1.232 1.419,1.232 m -3.468,-6.719 c 0.561,0 1.015,-0.393 1.015,-0.881 0,-0.488 -0.458,-0.881 -1.015,-0.881 -0.557,0 -1.019,0.393 -1.019,0.881 0,0.488 0.458,0.881 1.019,0.881 m -3.819,-5.636 c -0.37,0 -0.675,0.267 -0.675,0.591 0,0.324 0.305,0.588 0.675,0.588 0.37,0 0.679,-0.263 0.679,-0.588 0,-0.325 -0.305,-0.591 -0.679,-0.591 m -4.06,-2.308 c 0.248,0 0.45,-0.176 0.45,-0.389 0,-0.213 -0.202,-0.393 -0.45,-0.393 -0.248,0 -0.45,0.176 -0.45,0.393 0,0.217 0.202,0.389 0.45,0.389"
             id="path4-5" /></g></g><g
         id="g30"
         inkscape:label="GLTF"
         transform="translate(-30.977519,0.53177559)"><path
           fill="currentColor"
           d="m 125.43239,43.506944 c -0.2378,1.199609 -0.68651,1.911588 -1.1975,2.194336 -3.17833,1.658425 -3.88594,-9.279527 -1.60759,-12.117612 1.58603,-1.514353 2.52381,0.179054 2.80647,1.456048 v -1.712103 h 0.8482 c 0.0318,13.396149 1.03556,18.669882 -4.98435,18.605121 -3.01617,-2.398837 -5.05835,-7.018505 -5.05802,-12.322592 4.6e-4,-7.770669 4.38421,-14.068327 9.79132,-14.06611 3.53049,0.0014 6.61828,2.831628 8.34031,6.859686 -1.57774,-2.403941 -3.95034,-3.789061 -6.59656,-3.789061 -4.75007,0 -8.60082,4.924584 -8.60082,10.999533 0,3.808624 1.51908,7.168936 3.81896,9.14326 1.80158,1.311686 2.55615,-1.178986 2.43962,-5.250506 m 8.91963,3.357518 c -2.39021,3.443093 -5.57722,4.170587 -8.2709,3.535607 -0.51304,1.070186 -1.42938,2.291673 -2.67737,2.771301 4.45085,1.655243 8.52548,-0.884675 10.94827,-6.306908 m -2.85649,-11.020831 h 1.60323 V 33.32771 h -4.48439 v 2.515921 h 1.60323 v 9.871815 l 1.27788,0.007 z m 3.54624,4.837659 h 2.33465 v -2.516115 h -2.33465 v -2.321737 h 2.66705 v -2.515921 h -3.94502 v 12.401807 l 1.27793,0.007 z m -8.01642,5.019894 0.89013,0.007 V 30.23601 h -0.89013 z m -1.63347,-6.293901 c 0,-3.61386 -1.32392,-5.88481 -2.3773,-4.07788 -1.05337,1.806931 -1.05342,6.348831 0,8.155761 1.05342,1.806931 2.3773,-0.464019 2.3773,-4.077881"
           id="path1-4"
           style="fill:#008000;stroke-width:0.0635687" /></g><g
         id="g31"
         inkscape:label="Vulkan"
         transform="translate(-2.555058)"><path
           fill="#a41e22"
           d="m 120.97396,38.196357 c -0.34279,2.31775 0.26628,4.935141 1.52126,7.265855 -2.7904,-2.747433 -4.59492,-6.770952 -4.18416,-10.202068 0.56941,-4.752711 5.16433,-6.569208 9.82448,-4.498843 4.12176,1.829594 7.11328,7.168224 7.72804,10.918296 -1.35979,-2.825618 -3.442,-5.683779 -5.99156,-7.155127 -4.2465,-2.461022 -8.23229,-0.813859 -8.89812,3.671887 m 5.19553,10.801218 h -1.43342 l -1.86968,-13.281687 h 1.30315 l 1.28612,9.342702 h 0.017 l 1.30316,-9.342702 h 1.31162 z m 5.77064,0 h -1.09357 v -1.341173 h -0.0254 c -0.14448,0.559858 -0.33432,0.96348 -0.56659,1.210866 -0.23226,0.247385 -0.47028,0.37121 -0.71107,0.37121 -0.30876,0 -0.56089,-0.09128 -0.75637,-0.280062 -0.1983,-0.18878 -0.3513,-0.44913 -0.46459,-0.787796 -0.11334,-0.338535 -0.19266,-0.755121 -0.23796,-1.243542 -0.0454,-0.488156 -0.068,-1.03505 -0.068,-1.627584 v -5.9182 h 1.1501 v 5.430043 q 0,1.191419 0.16152,1.777339 c 0.10764,0.390657 0.30024,0.586052 0.57505,0.586052 0.31164,0 0.54108,-0.214842 0.67993,-0.644525 0.1416,-0.429816 0.20958,-1.132946 0.20958,-2.109523 v -5.039386 h 1.15016 v 9.616281 z m 0.76201,-11.282892 a 14.563303,33.469792 0 0 1 1.1501,1.458383 v 9.817894 h -1.1501 z m 3.16432,11.282892 h -1.15015 v -8.44431 c 0.36828,0.46871 0.85267,1.334691 1.1501,2.167996 z m 1.41926,-6.087401 1.75641,6.087401 h -1.39382 l -1.59206,-5.788025 -0.003,-0.371078 1.45046,-3.463661 h 1.35974 z m -1.41632,-2.864776 c -0.27198,-0.989542 -0.66007,-2.01176 -1.1501,-3.02088 v -1.315112 h 1.1501 z m 3.38249,2.291821 q 0.0254,-0.927894 0.20394,-1.54305 c 0.11898,-0.410105 0.2691,-0.735674 0.45325,-0.98306 q 0.2763,-0.37121 0.6204,-0.527447 a 3.551604,8.1623958 0 0 1 0.69121,-0.156104 c 0.20964,0 0.42499,0.03241 0.64027,0.104114 0.21528,0.07144 0.41359,0.201744 0.59209,0.397139 0.17844,0.201745 0.32292,0.475192 0.43626,0.826823 q 0.16993,0.527182 0.16993,1.406261 v 5.00671 c 0,0.436166 0.0113,0.852884 0.0312,1.243542 0.0226,0.397139 0.0595,0.696515 0.11328,0.89191 h -1.16714 a 1.5541865,3.571875 0 0 1 -0.0538,-0.455745 1.6693115,3.8364583 0 0 1 -0.0283,-0.475324 c -0.18414,0.436298 -0.39948,0.735674 -0.64872,0.91149 a 2.5730421,5.9134375 0 0 1 -0.76207,0.260482 c -0.1983,0 -0.38527,-0.05861 -0.55807,-0.169333 -0.1728,-0.110596 -0.32292,-0.286412 -0.45325,-0.520832 -0.13032,-0.234421 -0.23232,-0.533797 -0.30312,-0.891911 -0.0737,-0.358113 -0.11052,-0.787797 -0.11052,-1.282568 0,-0.546893 0.0425,-0.996156 0.12468,-1.347787 0.085,-0.351499 0.19266,-0.638043 0.32293,-0.846402 a 1.4735991,3.3866667 0 0 1 0.4533,-0.475192 5.3533092,12.303125 0 0 1 0.51271,-0.254 c 0.1728,-0.05847 0.34278,-0.110596 0.50994,-0.149622 0.16716,-0.03903 0.31447,-0.09128 0.44479,-0.169333 0.13026,-0.07157 0.23226,-0.182298 0.30876,-0.325437 0.0765,-0.14314 0.11052,-0.351632 0.10477,-0.625079 0,-0.286543 -0.0198,-0.51435 -0.0623,-0.677201 q -0.0595,-0.254 -0.16147,-0.390525 c -0.068,-0.09128 -0.14448,-0.156368 -0.23514,-0.188912 -0.0878,-0.03254 -0.18414,-0.04551 -0.28608,-0.04551 q -0.33997,0 -0.53545,0.332052 c -0.13032,0.221324 -0.20394,0.592402 -0.22662,1.113234 h -1.14175 z m 2.65719,1.953154 c -0.0481,0.09763 -0.11046,0.175815 -0.18132,0.234421 -0.0736,0.05861 -0.15012,0.104113 -0.23509,0.143139 -0.0821,0.03916 -0.16998,0.06509 -0.26346,0.09128 -0.0907,0.02593 -0.18414,0.05847 -0.2748,0.09102 -0.085,0.03916 -0.16998,0.08467 -0.25495,0.149754 -0.085,0.06509 -0.15582,0.143272 -0.21815,0.254 a 0.51806218,1.190625 0 0 0 -0.15013,0.39714 c -0.0368,0.162719 -0.0566,0.364596 -0.0566,0.611981 0,0.234289 0.0198,0.436166 0.0566,0.592402 0.0368,0.162719 0.0878,0.286544 0.153,0.384175 0.0652,0.09115 0.1416,0.156237 0.22662,0.195263 0.0878,0.03916 0.17563,0.05861 0.26629,0.05861 0.22662,0 0.40224,-0.08467 0.52692,-0.26035 0.12463,-0.175948 0.21529,-0.384175 0.27481,-0.625078 0.0595,-0.240903 0.0963,-0.488289 0.11046,-0.735674 0.0142,-0.247386 0.0198,-0.449263 0.0198,-0.592535 z m 1.89237,-4.915562 h 1.09351 v 1.341173 h 0.0255 c 0.14448,-0.559858 0.33427,-0.96348 0.56659,-1.21748 0.23232,-0.254 0.47028,-0.384043 0.71107,-0.384043 0.30876,0 0.56089,0.09763 0.75637,0.286412 0.1983,0.195395 0.35125,0.462227 0.46453,0.800761 0.1134,0.338667 0.19266,0.755386 0.23802,1.243542 0.0454,0.488156 0.0679,1.035182 0.0679,1.627849 v 5.918068 h -1.1501 v -5.429912 q 0,-1.191419 -0.16152,-1.777471 c -0.10764,-0.390525 -0.3003,-0.58592 -0.57505,-0.58592 q -0.46741,0 -0.67993,0.644525 c -0.1416,0.429816 -0.20964,1.132946 -0.20964,2.109523 v 5.039122 h -1.1501 v -9.616149 z"
           id="path1-8"
           style="stroke-width:0.0872642" /></g></g><g
       id="g36"
       inkscape:label="C"
       transform="translate(-6.5800912,10.006905)"><g
         id="g35"
         inkscape:label="Box"
         transform="matrix(2.298228,0,0,0.85043264,-32.928597,84.738035)"
         style="display:inline"><rect
           style="fill:#000000;stroke-width:0.264583"
           id="rect34"
           width="120"
           height="60"
           x="31.898586"
           y="9.8947601"
           rx="5.689893e-15"
           ry="2.7755576e-17"
           inkscape:label="border" /><rect
           style="fill:#ffffff;stroke-width:0.266581"
           id="rect35"
           width="119.3857"
           height="58.195724"
           x="32.177074"
           y="10.571572"
           rx="5.7567103e-15"
           ry="2.7849242e-17"
           inkscape:label="padding" /></g><g
         id="g29"
         transform="matrix(0.2951648,0,0,0.29516482,70.76531,100.04783)"
         style="display:inline"
         inkscape:label="C"><path
           fill="#659ad3"
           d="M 115.4,30.7 67.1,2.9 C 66.3,2.4 65.2,2.2 64,2.2 c -1.2,0 -2.3,0.3 -3.1,0.7 l -48,27.9 c -1.7,1 -2.9,3.5 -2.9,5.4 v 55.7 c 0,1.1 0.2,2.4 1,3.5 l 106.8,-62 c -0.6,-1.2 -1.5,-2.1 -2.4,-2.7"
           id="path1-3" /><path
           fill="#03599c"
           d="m 10.7,95.3 c 0.5,0.8 1.2,1.5 1.9,1.9 l 48.2,27.9 c 0.8,0.5 1.9,0.7 3.1,0.7 1.2,0 2.3,-0.3 3.1,-0.7 l 48,-27.9 c 1.7,-1 2.9,-3.5 2.9,-5.4 V 36.1 c 0,-0.9 -0.1,-1.9 -0.6,-2.8 z"
           id="path2-39" /><path
           fill="#ffffff"
           d="M 85.3,76.1 C 81.1,83.5 73.1,88.5 64,88.5 50.5,88.5 39.5,77.5 39.5,64 c 0,-13.5 11,-24.5 24.5,-24.5 9.1,0 17.1,5 21.3,12.5 l 13,-7.5 C 91.5,32.6 78.7,24.5 64,24.5 42.2,24.5 24.5,42.2 24.5,64 c 0,21.8 17.7,39.5 39.5,39.5 14.6,0 27.4,-8 34.2,-19.8 z"
           id="path3-0" /></g><text
         xml:space="preserve"
         style="font-style:normal;font-variant:normal;font-weight:normal;font-stretch:normal;font-size:19.7556px;font-family:Arial;-inkscape-font-specification:Arial;writing-mode:lr-tb;direction:ltr;fill:#000000;stroke-width:0.264583"
         x="123.04189"
         y="124.87647"
         id="text36"
         inkscape:label="api"><tspan
           sodipodi:role="line"
           id="tspan36"
           style="stroke-width:0.264583"
           x="123.04189"
           y="124.87647">PWEngine C  API </tspan></text></g></g><metadata
     id="metadata1"><rdf:RDF><cc:Work
         rdf:about=""><cc:license
           rdf:resource="http://creativecommons.org/licenses/by/4.0/" /><dc:title>PWEngine</dc:title><dc:creator><cc:Agent><dc:title>riceliker</dc:title></cc:Agent></dc:creator></cc:Work><cc:License
         rdf:about="http://creativecommons.org/licenses/by/4.0/"><cc:permits
           rdf:resource="http://creativecommons.org/ns#Reproduction" /><cc:permits
           rdf:resource="http://creativecommons.org/ns#Distribution" /><cc:requires
           rdf:resource="http://creativecommons.org/ns#Notice" /><cc:requires
           rdf:resource="http://creativecommons.org/ns#Attribution" /><cc:permits
           rdf:resource="http://creativecommons.org/ns#DerivativeWorks" /></cc:License></rdf:RDF></metadata></svg>
